<svg xmlns="http://www.w3.org/2000/svg" viewBox="0 0 768 370">
  <rect width="768" height="370" fill="transparent"/>
  <g>
    <path d="M384,180 L384.000,21.000 A159,159 0 1,1 297.825,313.622 Z" fill="#3b9eff" stroke="rgba(26, 71, 114, 0.5)" stroke-width="1"/>
    <path d="M384,180 L297.825,313.622 A159,159 0 0,1 226.057,161.696 Z" fill="#ff801f" stroke="rgba(114, 57, 13, 0.5)" stroke-width="1"/>
    <path d="M384,180 L226.057,161.696 A159,159 0 0,1 266.181,73.231 Z" fill="#9a5cd0" stroke="rgba(69, 41, 93, 0.5)" stroke-width="1"/>
    <path d="M384,180 L266.181,73.231 A159,159 0 0,1 291.714,50.523 Z" fill="#33b074" stroke="rgba(22, 79, 52, 0.5)" stroke-width="1"/>
    <path d="M384,180 L291.714,50.523 A159,159 0 0,1 316.670,35.960 Z" fill="#de51a8" stroke="rgba(99, 36, 75, 0.5)" stroke-width="1"/>
    <path d="M384,180 L316.670,35.960 A159,159 0 0,1 334.594,28.871 Z" fill="#6e6ade" stroke="rgba(49, 47, 99, 0.5)" stroke-width="1"/>
    <path d="M384,180 L334.594,28.871 A159,159 0 0,1 348.765,24.953 Z" fill="#ffd60a" stroke="rgba(114, 96, 4, 0.5)" stroke-width="1"/>
    <path d="M384,180 L348.765,24.953 A159,159 0 0,1 358.887,22.996 Z" fill="#ec6142" stroke="rgba(106, 43, 29, 0.5)" stroke-width="1"/>
    <path d="M384,180 L358.887,22.996 A159,159 0 0,1 368.274,21.780 Z" fill="#2870bd" stroke="rgba(18, 50, 85, 0.5)" stroke-width="1"/>
    <path d="M384,180 L368.274,21.780 A159,159 0 0,1 377.432,21.136 Z" fill="#a35829" stroke="rgba(73, 39, 18, 0.5)" stroke-width="1"/>
    <path d="M384,180 L377.432,21.136 A159,159 0 0,1 379.991,21.051 Z" fill="#8457aa" stroke="rgba(59, 39, 76, 0.5)" stroke-width="1"/>
    <path d="M384,180 L379.991,21.051 A159,159 0 0,1 381.914,21.014 Z" fill="#2f7c57" stroke="rgba(21, 55, 39, 0.5)" stroke-width="1"/>
    <path d="M384,180 L381.914,21.014 A159,159 0 0,1 382.896,21.004 Z" fill="#a84885" stroke="rgba(75, 32, 59, 0.5)" stroke-width="1"/>
    <path d="M384,180 L382.896,21.004 A159,159 0 0,1 383.491,21.001 Z" fill="#5958b1" stroke="rgba(40, 39, 79, 0.5)" stroke-width="1"/>
    <path d="M384,180 L383.491,21.001 A159,159 0 0,1 383.845,21.000 Z" fill="#8f6424" stroke="rgba(64, 45, 16, 0.5)" stroke-width="1"/>
    <path d="M384,180 L383.845,21.000 A159,159 0 0,1 384.000,21.000 Z" fill="#ac4d39" stroke="rgba(77, 34, 25, 0.5)" stroke-width="1"/>
    <text x="460.262" y="202.459" text-anchor="middle" dominant-baseline="central" font-family="system-ui, -apple-system, sans-serif" font-size="12" fill="#eeeeee" stroke="#111111" stroke-width="2" paint-order="stroke">59,12%</text>
    <text x="312.117" y="213.957" text-anchor="middle" dominant-baseline="central" font-family="system-ui, -apple-system, sans-serif" font-size="12" fill="#eeeeee" stroke="#111111" stroke-width="2" paint-order="stroke">17,72%</text>
    <text x="311.599" y="147.162" text-anchor="middle" dominant-baseline="central" font-family="system-ui, -apple-system, sans-serif" font-size="12" fill="#eeeeee" stroke="#111111" stroke-width="2" paint-order="stroke">9,88%</text>
    <text x="331.168" y="120.594" text-anchor="middle" dominant-baseline="central" font-family="system-ui, -apple-system, sans-serif" font-size="12" fill="#eeeeee" stroke="#111111" stroke-width="2" paint-order="stroke">3,43%</text>
    <text x="343.930" y="111.337" text-anchor="middle" dominant-baseline="central" font-family="system-ui, -apple-system, sans-serif" font-size="12" fill="#eeeeee" stroke="#111111" stroke-width="2" paint-order="stroke">2,90%</text>
    <g opacity="1"><path fill="none" stroke="#777777" stroke-width="1" d="M543.238,226.895L558.587,231.415L582.587,231.415"/><text x="588.587" y="231.415" text-anchor="start" dominant-baseline="central" font-family="system-ui, -apple-system, sans-serif" font-size="12" fill="#eeeeee" stroke="#111111" stroke-width="2" paint-order="stroke">10.11.6</text></g>
    <g opacity="1"><path fill="none" stroke="#777777" stroke-width="1" d="M233.904,250.903L219.437,257.737L195.437,257.737"/><text x="189.437" y="257.737" text-anchor="end" dominant-baseline="central" font-family="system-ui, -apple-system, sans-serif" font-size="12" fill="#eeeeee" stroke="#111111" stroke-width="2" paint-order="stroke">10.11.5</text></g>
    <g opacity="1"><path fill="none" stroke="#777777" stroke-width="1" d="M232.823,111.433L218.251,104.824L194.251,104.824"/><text x="188.251" y="104.824" text-anchor="end" dominant-baseline="central" font-family="system-ui, -apple-system, sans-serif" font-size="12" fill="#eeeeee" stroke="#111111" stroke-width="2" paint-order="stroke">10.10.7</text></g>
    <g opacity="1"><path fill="none" stroke="#777777" stroke-width="1" d="M273.684,55.958L263.051,44.002L239.051,44.002"/><text x="233.051" y="44.002" text-anchor="end" dominant-baseline="central" font-family="system-ui, -apple-system, sans-serif" font-size="12" fill="#eeeeee" stroke="#111111" stroke-width="2" paint-order="stroke">10.11.4</text></g>
    <g opacity="1"><path fill="none" stroke="#777777" stroke-width="1" d="M300.332,36.627L292.268,22.808L268.268,22.808"/><text x="262.268" y="22.808" text-anchor="end" dominant-baseline="central" font-family="system-ui, -apple-system, sans-serif" font-size="12" fill="#eeeeee" stroke="#111111" stroke-width="2" paint-order="stroke">10.11.3</text></g>
  </g>
</svg>